<svg width="14" height="14" viewBox="0 0 14 14" fill="none" xmlns="http://www.w3.org/2000/svg">
<g clip-path="url(#clip0_366_2236)">
<path d="M12.7537 13.3305C11.9073 12.605 10.4549 11.4407 8.91647 10.1192M8.91647 10.1192C7.46741 8.87444 5.94203 7.49028 4.77482 6.20202M8.91647 10.1192L6.16751 12.7064C4.9145 13.8857 2.91853 13.7311 1.86212 12.3728C0.907263 11.1452 1.08249 9.38445 2.26058 8.36904L4.77482 6.20202M8.91647 10.1192L10.6074 8.52778M4.77482 6.20202C3.59556 4.90046 2.78189 3.69681 2.78189 2.83378C2.78189 0.796325 4.28445 0.5 5.16426 0.5C6.45142 0.5 7.50537 1.25937 7.50537 2.83386C7.50537 3.88353 5.24416 5.79749 5.24416 5.79749L4.77482 6.20202Z" stroke="black" stroke-linecap="round" stroke-linejoin="round"/>
</g>
<defs>
<clipPath id="clip0_366_2236">
<rect width="14" height="14" fill="white"/>
</clipPath>
</defs>
</svg>
