<svg width="14" height="14" viewBox="0 0 14 14" fill="none" xmlns="http://www.w3.org/2000/svg">
<g clip-path="url(#clip0_366_6835)">
<path d="M2 7.5V12.5C2 12.7652 2.10536 13.0196 2.29289 13.2071C2.48043 13.3946 2.73478 13.5 3 13.5H11C11.2652 13.5 11.5196 13.3946 11.7071 13.2071C11.8946 13.0196 12 12.7652 12 12.5V7.5" stroke="black" stroke-linecap="round" stroke-linejoin="round"/>
<path d="M0.5 7.5H13.5" stroke="black" stroke-linecap="round" stroke-linejoin="round"/>
<path d="M7 7.5V13.5" stroke="black" stroke-linecap="round" stroke-linejoin="round"/>
<path d="M9.5 10V11" stroke="black" stroke-linecap="round" stroke-linejoin="round"/>
<path d="M4.5 10V11" stroke="black" stroke-linecap="round" stroke-linejoin="round"/>
<path d="M12 7.5V5.5C12 4.17392 11.4732 2.90215 10.5355 1.96447C9.59785 1.02678 8.32608 0.5 7 0.5C5.67392 0.5 4.40215 1.02678 3.46447 1.96447C2.52678 2.90215 2 4.17392 2 5.5V7.5" stroke="black" stroke-linecap="round" stroke-linejoin="round"/>
</g>
<defs>
<clipPath id="clip0_366_6835">
<rect width="14" height="14" fill="white"/>
</clipPath>
</defs>
</svg>
